# xmcd CD database file
#
# Track frame offsets:
#	150
#	12858
#	26153
#	43061
#	59861
#	88480
#	95304
#	108043
#	127707
#	143808
#	158667
#
# Disc length: 2243 seconds
#
# Revision: 0
# Processed by: cddbd v1.5.2PL0 Copyright (c) Steve Scherf et al.
# Submitted via: Mozilla Thunderbird 7.01
#
DISCID=8c08c10b
DTITLE=Disinter (PER) - Laments of the Unborn
DYEAR=2001
DGENRE=Death Metal
TTITLE0=Sowing
TTITLE1=Necrophiliac Pleasure
TTITLE2=Trapped In The Eternal Dark
TTITLE3=Soulgrinder
TTITLE4=In Cathalepsya I Dwell
TTITLE5=Skinning Me
TTITLE6=I Have Come
TTITLE7=Rotten Human Scraps
TTITLE8=Renacer
TTITLE9=Dead Man Way
TTITLE10=Into My Brain
EXTD=YEAR: 2001
EXTT0=
EXTT1=
EXTT2=
EXTT3=
EXTT4=
EXTT5=
EXTT6=
EXTT7=
EXTT8=
EXTT9=
EXTT10=
PLAYORDER=
